<?xml version="1.0" encoding="utf-8"?>
<!-- Generator: Adobe Illustrator 19.0.0, SVG Export Plug-In . SVG Version: 6.00 Build 0)  -->
<svg version="1.1" id="Layer_1" xmlns="http://www.w3.org/2000/svg" xmlns:xlink="http://www.w3.org/1999/xlink" x="0px" y="0px"
	 viewBox="-53 144 505 505" style="enable-background:new -53 144 505 505;" xml:space="preserve">
<style type="text/css">
	.st0{fill:#22313F;}
	.st1{fill:#FFFFFF;}
	.st2{fill:#E6E9EE;}
	.st3{fill:#ACB3BA;}
	.st4{fill:#3ECCB5;}
</style>
<circle class="st0" cx="199.5" cy="396.5" r="252.5"/>
<polygon class="st1" points="272.6,230.1 272.6,283.7 326.1,283.7 326.1,562.9 72.9,562.9 72.9,230.1 "/>
<polygon class="st2" points="272.6,230.1 326.1,283.7 272.6,283.7 "/>
<path class="st3" d="M248.2,432.3h-44.8v-61.6h-7.9v61.6h-44.8c-14.2,0-25.8,11.6-25.8,25.8v31.8h7.9v-31.8c0-9.9,8-17.9,17.9-17.9
	h97.4c9.9,0,17.9,8,17.9,17.9v31.8h7.9v-31.8C274,443.9,262.4,432.3,248.2,432.3z"/>
<g>
	<circle class="st4" cx="199.5" cy="374" r="34.7"/>
	<circle class="st4" cx="128.9" cy="489.9" r="27.8"/>
	<circle class="st4" cx="270.1" cy="489.9" r="27.8"/>
</g>
</svg>
