<?xml version="1.0" encoding="utf-8"?>
<!-- Generator: Adobe Illustrator 19.0.0, SVG Export Plug-In . SVG Version: 6.00 Build 0)  -->
<svg version="1.1" id="Layer_1" xmlns="http://www.w3.org/2000/svg" xmlns:xlink="http://www.w3.org/1999/xlink" x="0px" y="0px"
	 viewBox="-53 144 505 505" style="enable-background:new -53 144 505 505;" xml:space="preserve">
<style type="text/css">
	.st0{fill:#22313F;}
	.st1{fill:#08446D;}
	.st2{fill:#00233F;}
	.st3{fill:#22EFAB;}
	.st4{fill:#0DD396;}
	.st5{fill:#C6640C;}
	.st6{fill:#5A8CA8;}
	.st7{fill:#D7DEED;}
	.st8{fill:#C7CFE2;}
	.st9{fill:#707487;}
	.st10{fill:#5B5D6E;}
	.st11{opacity:0.97;}
	.st12{fill:#AFB9D2;}
</style>
<circle class="st0" cx="199.5" cy="396.5" r="252.5"/>
<g>
	<g>
		<polygon class="st1" points="302.4,428.7 194.9,428.7 194.9,399.8 210.7,384.4 302.4,384.4 		"/>
		<rect x="237" y="298" class="st1" width="14.8" height="12.7"/>
	</g>
	<polyline class="st2" points="237,298 251.8,298 251.8,310.6 	"/>
	<rect x="224.4" y="302.2" class="st1" width="40.1" height="42.2"/>
	<g>
		<polyline class="st2" points="224.4,302.2 264.5,302.2 264.5,344.4 		"/>
		<rect x="216" y="317" class="st2" width="56.9" height="111.8"/>
	</g>
	<rect x="239.1" y="327.5" class="st3" width="10.5" height="10.5"/>
	<polyline class="st4" points="249.7,327.5 249.7,338 239.1,338 	"/>
	<rect x="239.1" y="342.3" class="st3" width="10.5" height="10.5"/>
	<polyline class="st4" points="249.7,342.3 249.7,352.8 239.1,352.8 	"/>
	<rect x="239.1" y="357" class="st3" width="10.5" height="10.5"/>
	<polyline class="st4" points="249.7,357 249.7,367.6 239.1,367.6 	"/>
	<rect x="239.1" y="371.8" class="st3" width="10.5" height="10.5"/>
	<polyline class="st4" points="249.7,371.8 249.7,382.3 239.1,382.3 	"/>
	<rect x="239.1" y="386.5" class="st3" width="10.5" height="10.5"/>
	<polyline class="st4" points="249.7,386.5 249.7,397.1 239.1,397.1 	"/>
	<rect x="224.4" y="342.3" class="st3" width="10.5" height="10.5"/>
	<polyline class="st4" points="234.9,342.3 234.9,352.8 224.4,352.8 	"/>
	<rect x="224.4" y="357" class="st3" width="10.5" height="10.5"/>
	<polyline class="st4" points="234.9,357 234.9,367.6 224.4,367.6 	"/>
	<rect x="224.4" y="371.8" class="st3" width="10.5" height="10.5"/>
	<polyline class="st4" points="234.9,371.8 234.9,382.3 224.4,382.3 	"/>
	<rect x="224.4" y="386.5" class="st3" width="10.5" height="10.5"/>
	<polyline class="st4" points="234.9,386.5 234.9,397.1 224.4,397.1 	"/>
	<rect x="224.4" y="327.5" class="st3" width="10.5" height="10.5"/>
	<polyline class="st4" points="234.9,327.5 234.9,338 224.4,338 	"/>
	<rect x="253.9" y="327.5" class="st3" width="10.5" height="10.5"/>
	<polyline class="st4" points="264.5,327.5 264.5,338 253.9,338 	"/>
	<rect x="253.9" y="342.3" class="st3" width="10.5" height="10.5"/>
	<polyline class="st4" points="264.5,342.3 264.5,352.8 253.9,352.8 	"/>
	<rect x="253.9" y="357" class="st3" width="10.5" height="10.5"/>
	<polyline class="st4" points="264.5,357 264.5,367.6 253.9,367.6 	"/>
	<rect x="253.9" y="371.8" class="st3" width="10.5" height="10.5"/>
	<polyline class="st4" points="264.5,371.8 264.5,382.3 253.9,382.3 	"/>
	<rect x="253.9" y="386.5" class="st3" width="10.5" height="10.5"/>
	<polyline class="st4" points="264.5,386.5 264.5,397.1 253.9,397.1 	"/>
	<path class="st5" d="M251.8,426.6V410c0-1.5-1.5-2.3-3-2.3h-9.1c-1.5,0-2.7,1.1-2.7,2.3v16.7H251.8z"/>
	<g>
		<rect x="279.2" y="350.7" class="st1" width="40.1" height="78"/>
		<rect x="285.5" y="338" class="st1" width="27.4" height="29.5"/>
		<rect x="291.9" y="323.3" class="st1" width="14.8" height="27.4"/>
		<polygon class="st1" points="290.8,352.2 299.2,300.7 307.7,352.2 299.2,360.6 		"/>
	</g>
	<g>
		<rect x="287.7" y="359.1" class="st6" width="2.1" height="61.2"/>
		<rect x="298.2" y="359.1" class="st6" width="2.1" height="61.2"/>
		<rect x="306.6" y="359.1" class="st6" width="2.1" height="61.2"/>
	</g>
</g>
<g>
	
		<rect x="154.6" y="400.3" transform="matrix(-0.7071 -0.7071 0.7071 -0.7071 -20.0827 846.9294)" class="st7" width="21.5" height="54.6"/>
	<path class="st8" d="M163.5,414.3c4.6,5.5,9.7,10.6,15.2,15.2l13.6-13.6l-15.2-15.2L163.5,414.3z"/>
	<path class="st7" d="M258.9,221.4c-62.3,0-112.8,50.5-112.8,112.8s50.5,112.8,112.8,112.8s112.8-50.5,112.8-112.8
		S321.1,221.4,258.9,221.4z M258.9,429.1c-52.5,0-95-42.5-95-95c0-52.5,42.5-95,95-95c52.5,0,95,42.5,95,95
		C353.8,386.6,311.3,429.1,258.9,429.1z"/>
	<path class="st9" d="M43.4,562.2l-12.6-12.6c-4.6-4.6-4.6-12.2,0-16.8L131,432.6c4.6-4.6,12.2-4.6,16.8,0l12.6,12.6
		c4.6,4.6,4.6,12.2,0,16.8L60.2,562.2C55.6,566.8,48.1,566.8,43.4,562.2z"/>
	<path class="st10" d="M42.7,544.6l100.2-100.2c4.6-4.6,12.2-4.6,16.8,0l0.7,0.7c0,0,0,0,0,0l-12.6-12.6c-4.6-4.6-12.2-4.6-16.8,0
		L30.8,532.8c-4.6,4.6-4.6,12.2,0,16.8l11.9,11.9C38.1,556.8,38.1,549.3,42.7,544.6z"/>
	<path class="st8" d="M153.1,469.3l7.3-7.3c4.6-4.6,4.6-12.2,0-16.8l-12.6-12.6c-4.6-4.6-12.2-4.6-16.8,0l-7.3,7.3L153.1,469.3z"/>
	<g class="st11">
		<path class="st12" d="M135.6,451.8l7.3-7.3c4.6-4.6,12.2-4.6,16.8,0l0.7,0.7c0,0,0,0,0,0l-12.6-12.6c-4.6-4.6-12.2-4.6-16.8,0
			l-7.3,7.3L135.6,451.8z"/>
	</g>
</g>
</svg>
