<?xml version="1.0" encoding="utf-8"?>
<!-- Generator: Adobe Illustrator 19.0.0, SVG Export Plug-In . SVG Version: 6.00 Build 0)  -->
<svg version="1.1" xmlns="http://www.w3.org/2000/svg" xmlns:xlink="http://www.w3.org/1999/xlink" x="0px" y="0px"
	 viewBox="-49 141 512 512" style="enable-background:new -49 141 512 512;" xml:space="preserve">
<style type="text/css">
	.st0{fill:#22313F;}
	.st1{fill:#55FFDE;}
	.st2{fill:#3ECCB5;}
	.st3{fill:#FFFFFF;}
	.st4{fill:#E0E0E0;}
</style>
<g id="Layer_2">
	<circle class="st0" cx="207.5" cy="396.5" r="252.5"/>
</g>
<g id="Capa_1">
	<g>
		<rect x="58" y="251.3" class="st1" width="266" height="36.7"/>
		<rect x="139.5" y="251.3" class="st2" width="184.5" height="36.7"/>
		<rect x="58" y="303.4" class="st1" width="210.7" height="36.7"/>
		<rect x="139.5" y="303.4" class="st2" width="129.2" height="36.7"/>
		<rect x="58" y="355.5" class="st1" width="180" height="36.7"/>
		<rect x="139.5" y="355.5" class="st2" width="98.5" height="36.7"/>
		<rect x="58" y="407.5" class="st1" width="126.7" height="36.7"/>
		<rect x="139.5" y="407.5" class="st2" width="45.2" height="36.7"/>
		<rect x="58" y="459.6" class="st1" width="94.7" height="36.7"/>
		<rect x="139.5" y="459.6" class="st2" width="13.2" height="36.7"/>
		<rect x="58" y="511.7" class="st1" width="59.3" height="36.7"/>
		<polygon class="st3" points="291,303.4 291,484.5 254.5,448.1 231,471.6 307.7,548.3 384.4,471.6 360.8,448.1 324.3,484.5 
			324.3,303.4 		"/>
		<polygon class="st4" points="307.7,548.3 384.4,471.6 360.8,448.1 324.3,484.5 324.3,303.4 307.7,303.4 		"/>
	</g>
</g>
</svg>
